<mxfile host="app.diagrams.net" modified="2024-06-04T20:09:22.702Z" agent="Mozilla/5.0 (Windows NT 10.0; Win64; x64) AppleWebKit/537.36 (KHTML, like Gecko) Chrome/125.0.0.0 Safari/537.36" etag="ZXBvh5yDufkaz5GK9Y4S" version="24.4.13" type="github">
  <diagram name="第 1 页" id="B8NXhtIKuSjFqZoY_9ro">
    <mxGraphModel dx="1221" dy="725" grid="1" gridSize="10" guides="1" tooltips="1" connect="1" arrows="1" fold="1" page="1" pageScale="1" pageWidth="827" pageHeight="1169" math="0" shadow="0">
      <root>
        <mxCell id="0" />
        <mxCell id="1" parent="0" />
        <mxCell id="MAq56R4eppQDdvhyTCYg-1" value="OCCUPATIONS" style="rounded=1;whiteSpace=wrap;html=1;" vertex="1" parent="1">
          <mxGeometry x="40" y="40" width="120" height="40" as="geometry" />
        </mxCell>
        <mxCell id="MAq56R4eppQDdvhyTCYg-2" value="payroll" style="rounded=1;whiteSpace=wrap;html=1;" vertex="1" parent="1">
          <mxGeometry x="200" y="40" width="60" height="40" as="geometry" />
        </mxCell>
        <mxCell id="MAq56R4eppQDdvhyTCYg-3" value="pay day" style="rounded=1;whiteSpace=wrap;html=1;" vertex="1" parent="1">
          <mxGeometry x="260" y="40" width="60" height="40" as="geometry" />
        </mxCell>
      </root>
    </mxGraphModel>
  </diagram>
</mxfile>
